<svg width="26" height="27" viewBox="0 0 26 27" fill="none" xmlns="http://www.w3.org/2000/svg">
<path fill-rule="evenodd" clip-rule="evenodd" d="M4.39524 0.374835C3.47598 0.552493 4.02125 1.79247 6.75458 1.6982L15.8774 1.61844C16.2513 1.61844 16.9574 1.67645 17.1462 1.87224L19.897 3.46391C20.9455 4.18904 20.2745 4.0839 19.5475 4.10565L8.76437 4.46822C7.56901 4.5081 7.38723 4.65313 6.44699 3.97513C2.97265 1.46253 0.651763 0.374835 0.148438 4.2398C0.190381 8.10716 0.23349 11.9843 0.277764 15.871C0.34068 16.7303 1.8157 16.8717 1.84017 15.784C1.84017 11.8755 1.84017 8.64136 1.84017 4.7329C1.84017 3.957 2.1897 3.8591 2.88877 4.45735L4.79022 6.30281C5.44034 6.88289 5.46481 7.57541 5.45782 8.55075V20.1747C5.41238 20.9868 5.65006 22.0672 4.67836 21.0557L2.65109 18.8368C1.4452 17.9594 1.36131 19.3045 1.60249 19.6997C2.9107 21.7746 4.35906 23.7507 5.93668 25.6132C7.15303 27.0308 6.91887 27.0634 8.58962 26.9329L23.5671 25.4101C24.7205 25.2651 25.7726 24.1375 25.853 21.9548V10.6355C25.6992 8.27155 23.4063 8.37668 23.5356 10.6355L23.6195 20.965C23.574 22.3936 23.4482 22.4153 21.7075 22.8069C20.3688 23.1005 13.8186 23.978 10.1311 23.764C8.79232 23.6879 8.35896 23.3507 8.35896 22.2268V9.17434C8.35896 7.47027 9.43896 6.90832 10.9944 6.81766L24.1787 6.25205C26.2759 5.71183 24.5702 3.35151 23.5671 2.89105C22.4905 2.41609 18.775 0.679392 17.1322 0.139167C16.8306 0.0197615 16.5059 -0.0237284 16.1849 0.0122677L4.39524 0.374835Z" fill="#FF0000"/>
<path fill-rule="evenodd" clip-rule="evenodd" d="M10.5635 15.512L10.5391 13.4853L17.3025 13.072L14.1392 10.2802L17.0473 10.175L20.6685 13.5976L16.2854 18.2676L13.9784 18.0428L17.1487 14.863L10.5635 15.512Z" fill="#FFFFFF"/>
</svg>
