<svg width="102" height="27" viewBox="0 0 102 27" fill="none" xmlns="http://www.w3.org/2000/svg">
<g clip-path="url(#clip0_64_2296)">
<g clip-path="url(#clip1_64_2296)">
<path fill-rule="evenodd" clip-rule="evenodd" d="M4.39524 0.374835C3.47598 0.552493 4.02125 1.79247 6.75458 1.6982L15.8774 1.61844C16.2513 1.61844 16.9574 1.67645 17.1462 1.87224L19.897 3.46391C20.9455 4.18904 20.2745 4.0839 19.5475 4.10565L8.76437 4.46822C7.56901 4.5081 7.38723 4.65313 6.44699 3.97513C2.97265 1.46253 0.651763 0.374835 0.148438 4.2398C0.190381 8.10716 0.23349 11.9843 0.277764 15.871C0.34068 16.7303 1.8157 16.8717 1.84017 15.784C1.84017 11.8755 1.84017 8.64136 1.84017 4.7329C1.84017 3.957 2.1897 3.8591 2.88877 4.45735L4.79022 6.30281C5.44034 6.88289 5.46481 7.57541 5.45782 8.55075V20.1747C5.41238 20.9868 5.65006 22.0672 4.67836 21.0557L2.65109 18.8368C1.4452 17.9594 1.36131 19.3045 1.60249 19.6997C2.9107 21.7746 4.35906 23.7507 5.93668 25.6132C7.15303 27.0308 6.91887 27.0634 8.58962 26.9329L23.5671 25.4101C24.7205 25.2651 25.7726 24.1375 25.853 21.9548V10.6355C25.6992 8.27155 23.4063 8.37668 23.5356 10.6355L23.6195 20.965C23.574 22.3936 23.4482 22.4153 21.7075 22.8069C20.3688 23.1005 13.8186 23.978 10.1311 23.764C8.79232 23.6879 8.35896 23.3507 8.35896 22.2268V9.17434C8.35896 7.47027 9.43896 6.90832 10.9944 6.81766L24.1787 6.25205C26.2759 5.71183 24.5702 3.35151 23.5671 2.89105C22.4905 2.41609 18.775 0.679392 17.1322 0.139167C16.8306 0.0197615 16.5059 -0.0237284 16.1849 0.0122677L4.39524 0.374835Z" fill="#FF0000"/>
<path fill-rule="evenodd" clip-rule="evenodd" d="M10.5635 15.512L10.5391 13.4853L17.3025 13.072L14.1392 10.2802L17.0473 10.175L20.6685 13.5976L16.2854 18.2676L13.9784 18.0428L17.1487 14.863L10.5635 15.512Z" fill="black"/>
</g>
</g>
<path d="M45.531 21L44.6 17.637H40.667L39.755 21H37.247L40.971 7.738H44.429L48.172 21H45.531ZM42.719 10.189H42.567L41.104 15.604H44.182L42.719 10.189ZM53.5606 21.228C52.4206 21.228 51.4452 21.0317 50.6346 20.639C49.8366 20.2463 49.1842 19.727 48.6776 19.081L50.1786 17.523C50.6726 18.093 51.2046 18.5173 51.7746 18.796C52.3572 19.062 52.9779 19.195 53.6366 19.195C54.3966 19.195 54.9792 19.024 55.3846 18.682C55.7899 18.34 55.9926 17.846 55.9926 17.2C55.9926 16.668 55.8406 16.269 55.5366 16.003C55.2326 15.7243 54.7196 15.528 53.9976 15.414L52.5916 15.186C51.3629 14.9707 50.4889 14.5273 49.9696 13.856C49.4502 13.172 49.1906 12.3677 49.1906 11.443C49.1906 10.1763 49.6022 9.20733 50.4256 8.536C51.2489 7.852 52.3889 7.51 53.8456 7.51C54.8842 7.51 55.7772 7.67467 56.5246 8.004C57.2846 8.33333 57.8926 8.783 58.3486 9.353L56.8856 10.911C56.5309 10.493 56.1066 10.1637 55.6126 9.923C55.1186 9.66967 54.5359 9.543 53.8646 9.543C52.4206 9.543 51.6986 10.1383 51.6986 11.329C51.6986 11.8357 51.8506 12.222 52.1546 12.488C52.4586 12.754 52.9779 12.9503 53.7126 13.077L55.0996 13.324C56.2522 13.5393 57.1072 13.9637 57.6646 14.597C58.2219 15.2303 58.5006 16.041 58.5006 17.029C58.5006 17.6497 58.3929 18.2197 58.1776 18.739C57.9622 19.2457 57.6456 19.689 57.2276 20.069C56.8096 20.4363 56.2902 20.7213 55.6696 20.924C55.0616 21.1267 54.3586 21.228 53.5606 21.228ZM60.5072 21V19.138H63.4902V9.6H60.5072V7.738H68.9432V9.6H65.9602V19.138H68.9432V21H60.5072ZM76.9727 9.79V21H74.5027V9.79H70.5127V7.738H80.9627V9.79H76.9727ZM82.6273 21V7.738H91.0063V9.79H85.1163V13.248H90.7973V15.3H85.1163V18.948H91.0063V21H82.6273Z" fill="#16181C"/>
<defs>
<clipPath id="clip0_64_2296">
<rect width="26" height="27" fill="white"/>
</clipPath>
<clipPath id="clip1_64_2296">
<rect width="25.7045" height="27" fill="white" transform="translate(0.148438)"/>
</clipPath>
</defs>
</svg>
